<?xml version="1.0" standalone="no"?>
<!DOCTYPE svg PUBLIC "-//W3C//DTD SVG 20010904//EN"
 "http://www.w3.org/TR/2001/REC-SVG-20010904/DTD/svg10.dtd">
<svg version="1.0" xmlns="http://www.w3.org/2000/svg"
 width="509.000000pt" height="509.000000pt" viewBox="0 0 509.000000 509.000000"
 preserveAspectRatio="xMidYMid meet">
<metadata>
Created by potrace 1.14, written by Peter Selinger 2001-2017
</metadata>
<g transform="translate(0.000000,509.000000) scale(0.100000,-0.100000)"
fill="#000000" stroke="none">
<path d="M2548 5086 c-1 -2 -61 -6 -133 -10 -71 -3 -148 -9 -170 -12 -501 -67
-925 -247 -1300 -552 -74 -60 -277 -257 -335 -327 -273 -323 -489 -769 -554
-1145 -3 -19 -8 -45 -10 -56 -7 -35 -14 -86 -21 -149 -4 -33 -9 -71 -11 -85
-6 -36 -6 -378 1 -425 3 -22 9 -76 15 -120 32 -261 110 -522 223 -755 23 -47
42 -87 42 -90 1 -13 94 -165 153 -250 315 -459 747 -789 1283 -978 46 -16 154
-46 239 -65 237 -54 312 -62 590 -61 192 0 305 6 350 19 8 2 38 6 65 10 274
33 700 201 971 382 319 213 606 513 788 823 39 67 162 318 181 370 90 248 140
454 163 675 13 132 4 597 -13 625 -2 3 -6 23 -9 45 -26 169 -102 431 -168 580
-142 321 -315 575 -552 810 -202 200 -400 341 -651 466 -194 96 -268 124 -480
185 -54 15 -280 61 -305 62 -8 0 -35 3 -60 6 -25 4 -94 9 -155 12 -60 3 -115
7 -122 9 -6 2 -13 2 -15 1z"/>
</g>
</svg>
