<svg width="626" height="191" viewBox="0 0 626 191" fill="none" xmlns="http://www.w3.org/2000/svg">
<path d="M573.73 93.04H551.94C537.88 93.04 530.15 103.58 530.15 121.85V187.21H487.98V93.04H470.41C456.35 93.04 448.62 103.58 448.62 121.85V187.21H406.45V57.9H448.62V77.58C455.65 62.12 464.78 57.9 478.84 57.9H530.14V77.58C537.17 62.12 546.3 57.9 560.36 57.9H574.42L573.73 93.04ZM396.63 132.4H309.48C311.59 147.16 320.72 154.89 335.48 154.89C346.72 154.89 354.46 149.97 357.27 142.24L394.52 152.78C385.38 175.27 362.89 188.62 335.49 188.62C289.81 188.62 268.73 152.78 268.73 121.86C268.73 91.64 287 55.8 332.68 55.8C381.17 55.8 397.34 92.34 397.34 119.75C397.33 126.07 397.33 129.59 396.63 132.4ZM356.57 107.8C355.87 96.56 347.43 86.72 333.38 86.72C320.03 86.72 312.3 92.34 309.49 107.8H356.57ZM195.63 187.21H232.17L278.55 58.6H236.4L213.91 133.8L191.42 57.9H149.25L195.63 187.21ZM24.16 187.21H65.62V93.04H105.68V187.21H147.14V57.9H65.62V50.17C65.62 41.74 71.95 36.11 81.08 36.11H105.68V0.969971H74.76C44.54 0.969971 24.16 19.95 24.16 47.35V57.89H0.27002V93.03H24.16V187.21Z" fill="#666666"/>
<path d="M599.74 190.73C613.8 190.73 625.74 178.78 625.74 164.73C625.74 150.67 613.79 138.73 599.74 138.73C585.68 138.73 573.74 150.68 573.74 164.73C573.73 178.78 585.68 190.73 599.74 190.73Z" fill="#666666"/>
</svg>
